<svg width="500" height="500" viewBox="0 0 500 500" fill="none" xmlns="http://www.w3.org/2000/svg">
<path d="M359 344V120.286C359 110.397 355.067 100.913 348.065 93.9207C341.064 86.9283 331.568 83 321.667 83H79" stroke="url(#paint0_linear_17_2)" stroke-width="17" stroke-linecap="round" stroke-linejoin="round"/>
<path d="M332.354 139.261C322.893 139.304 313.858 140.111 305.91 141.519C282.491 145.657 278.24 154.316 278.24 170.287V191.379H333.58V198.409H257.469C241.386 198.409 227.302 208.077 222.897 226.468C217.815 247.547 217.59 260.701 222.897 282.712C226.831 299.096 236.226 310.771 252.309 310.771H271.337V285.486C271.337 267.22 287.142 251.108 305.91 251.108H361.186C376.574 251.108 388.857 238.439 388.857 222.986V170.285C388.857 155.288 376.204 144.02 361.186 141.517C351.677 139.935 341.816 139.215 332.354 139.261ZM302.426 156.223C308.143 156.223 312.81 160.968 312.81 166.801C312.81 172.613 308.141 177.315 302.426 177.315C296.69 177.315 292.042 172.615 292.042 166.801C292.042 160.968 296.69 156.223 302.426 156.223Z" fill="url(#paint1_linear_17_2)"/>
<path d="M395.759 198.407V222.981C395.759 242.034 379.606 258.07 361.186 258.07H305.91C290.768 258.07 278.24 271.028 278.24 286.192V338.889C278.24 353.888 291.28 362.71 305.91 367.011C323.427 372.163 340.226 373.094 361.186 367.011C375.119 362.978 388.857 354.858 388.857 338.889V317.799H333.58V310.768H416.527C432.612 310.768 438.604 299.548 444.197 282.71C449.976 265.377 449.731 248.703 444.197 226.466C440.222 210.455 432.63 198.407 416.527 198.407H395.759ZM364.668 331.859C370.404 331.859 375.052 336.558 375.052 342.373C375.052 348.206 370.404 352.951 364.668 352.951C358.951 352.951 354.284 348.206 354.284 342.373C354.284 336.561 358.953 331.859 364.668 331.859Z" fill="url(#paint2_linear_17_2)"/>
<path d="M153.9 418H377.7C387.593 418 397.08 414.078 404.075 407.098C411.07 400.117 415 390.65 415 380.778V362.167C415 357.231 413.035 352.497 409.538 349.007C406.04 345.516 401.296 343.556 396.35 343.556H209.85C204.904 343.556 200.16 345.516 196.662 349.007C193.165 352.497 191.2 357.231 191.2 362.167V380.778C191.2 390.65 187.27 400.117 180.275 407.098C173.28 414.078 163.793 418 153.9 418ZM153.9 418C144.007 418 134.52 414.078 127.525 407.098C120.53 400.117 116.6 390.65 116.6 380.778V120.222C116.6 110.35 112.67 100.883 105.675 93.9021C98.68 86.9216 89.1926 83 79.3 83C69.4074 83 59.92 86.9216 52.9249 93.9021C45.9298 100.883 42 110.35 42 120.222V157.444C42 162.38 43.9649 167.114 47.4625 170.604C50.96 174.095 55.7037 176.056 60.65 176.056H116.6" stroke="url(#paint3_linear_17_2)" stroke-width="17" stroke-linecap="round" stroke-linejoin="round"/>
<defs>
<linearGradient id="paint0_linear_17_2" x1="219" y1="83" x2="219" y2="344" gradientUnits="userSpaceOnUse">
<stop stop-color="#00FFCC"/>
<stop offset="1" stop-color="#6FB6E2"/>
</linearGradient>
<linearGradient id="paint1_linear_17_2" x1="213.543" y1="145.847" x2="341.158" y2="254.579" gradientUnits="userSpaceOnUse">
<stop stop-color="#5A9FD4"/>
<stop offset="1" stop-color="#306998"/>
</linearGradient>
<linearGradient id="paint2_linear_17_2" x1="389.043" y1="322.362" x2="343.257" y2="258.209" gradientUnits="userSpaceOnUse">
<stop stop-color="#FFD43B"/>
<stop offset="1" stop-color="#FFE873"/>
</linearGradient>
<linearGradient id="paint3_linear_17_2" x1="228.5" y1="83" x2="228.5" y2="418" gradientUnits="userSpaceOnUse">
<stop stop-color="#00FFCC"/>
<stop offset="1" stop-color="#6FB6E2"/>
</linearGradient>
</defs>
</svg>
